<svg version="1.1" xmlns="http://www.w3.org/2000/svg" viewBox="0 0 1390.2633399991319 352.0604098423198" width="2780.5266799982637" height="704.1208196846396">
  <!-- svg-source:excalidraw -->
  
  <defs>
    <style>
      @font-face {
        font-family: "Virgil";
        src: url("https://excalidraw.com/Virgil.woff2");
      }
      @font-face {
        font-family: "Cascadia";
        src: url("https://excalidraw.com/Cascadia.woff2");
      }
    </style>
  </defs>
  <rect x="0" y="0" width="1390.2633399991319" height="352.0604098423198" fill="#ffffff"></rect><g stroke-linecap="round" transform="translate(10 64.5859375) rotate(0 170.017578125 131.203125)"><path d="M1.42 1.65 L338.55 -1.64 L340.39 263.2 L0.5 262.95" stroke="none" stroke-width="0" fill="#ced4da"></path><path d="M-0.27 -1.05 C71.59 0.15, 144.95 -0.25, 340.36 -1.06 M339.97 -1.12 C341.19 77.83, 340.29 156.06, 338.47 263.1 M340.26 263.16 C219.38 259.77, 98.72 259.84, -0.16 263.15 M0.47 261.71 C-1.74 183.11, -1.54 100.4, 0.75 1.37" stroke="#343a40" stroke-width="1.5" fill="none" stroke-dasharray="1.5 7"></path></g><g stroke-linecap="round" transform="translate(198.1015625 90.4453125) rotate(0 56.330078125 52.396484375)"><path d="M44.25 1.05 C52.97 -1.49, 64.32 -0.01, 73.34 2.67 C82.37 5.35, 92.14 10.6, 98.37 17.13 C104.6 23.65, 108.79 32.81, 110.73 41.83 C112.67 50.84, 112.99 62.79, 110.03 71.24 C107.08 79.69, 100.65 87.02, 92.99 92.53 C85.32 98.04, 73.55 102.72, 64.03 104.3 C54.51 105.89, 44.5 105.48, 35.85 102.03 C27.2 98.58, 17.92 90.82, 12.12 83.6 C6.32 76.37, 2.34 67.26, 1.05 58.69 C-0.23 50.13, 0.85 40.34, 4.42 32.19 C8 24.05, 15.5 14.97, 22.5 9.83 C29.5 4.68, 42.19 2.65, 46.4 1.32 C50.61 -0.01, 47.71 0.99, 47.78 1.83" stroke="none" stroke-width="0" fill="#fd7e14"></path><path d="M77.55 5.11 C86.34 7.52, 96.7 13.54, 102.44 20.49 C108.18 27.45, 111 37.86, 112 46.83 C113 55.8, 112.23 66.23, 108.44 74.3 C104.64 82.38, 97.23 90.13, 89.23 95.3 C81.23 100.47, 70.01 104.79, 60.45 105.34 C50.9 105.89, 40.54 102.58, 31.9 98.59 C23.25 94.6, 14.04 88.87, 8.58 81.39 C3.12 73.91, -0.72 62.85, -0.86 53.69 C-0.99 44.54, 2.93 34.17, 7.77 26.47 C12.61 18.77, 20.17 11.89, 28.17 7.5 C36.17 3.11, 47.26 0.5, 55.76 0.13 C64.25 -0.24, 74.89 4.17, 79.12 5.27 C83.36 6.38, 81.33 6.2, 81.17 6.77" stroke="#343a40" stroke-width="1.5" fill="none" stroke-dasharray="1.5 7"></path></g><g stroke-linecap="round" transform="translate(59.16796875 172.16015625) rotate(0 68.861328125 59.412109375)"><path d="M-0.11 -0.45 L137.21 -1.9 L139.15 118.36 L1.61 118.54" stroke="none" stroke-width="0" fill="#82c91e"></path><path d="M1.72 -0.5 C36.83 3.23, 76.99 1.37, 138.01 1.5 M138.22 -1.93 C139.77 31.45, 137.54 61.86, 135.94 117.49 M136.23 117.92 C105.95 118.1, 71.11 120.32, -1.31 119.2 M0.96 118.79 C0.01 95.09, 0 71.29, 1.17 -0.02" stroke="#343a40" stroke-width="1.5" fill="none" stroke-dasharray="1.5 7"></path></g><g stroke-linecap="round"><g transform="translate(392.15625 201.5390625) rotate(0 34.526510130986594 -0.982615003604451)"><path d="M-0.81 1.05 C10.97 0.92, 58.16 -0.96, 69.86 -1.42 M0.97 0.55 C12.71 0.17, 57.95 -2.3, 69.24 -3.01" stroke="#343a40" stroke-width="2" fill="none"></path></g><g transform="translate(392.15625 201.5390625) rotate(0 34.526510130986594 -0.982615003604451)"><path d="M43.43 9.89 C49.92 6.5, 55.86 1.65, 70.82 -1.18 M41.75 8.96 C51.63 5.71, 59.89 0.48, 68.9 -2.53" stroke="#343a40" stroke-width="2" fill="none"></path></g><g transform="translate(392.15625 201.5390625) rotate(0 34.526510130986594 -0.982615003604451)"><path d="M42.24 -10.6 C48.9 -9.17, 55.12 -9.22, 70.82 -1.18 M40.57 -11.53 C50.74 -8.04, 59.39 -6.53, 68.9 -2.53" stroke="#343a40" stroke-width="2" fill="none"></path></g></g><g transform="translate(146.6015625 16.625) rotate(0 29 12.5)"><text x="0" y="18" font-family="Virgil, Segoe UI Emoji" font-size="20px" fill="#343a40" text-anchor="start" style="white-space: pre;" direction="ltr">Image</text></g><g transform="translate(635.82421875 10) rotate(0 55 12.5)"><text x="0" y="18" font-family="Virgil, Segoe UI Emoji" font-size="20px" fill="#343a40" text-anchor="start" style="white-space: pre;" direction="ltr">Energy Map</text></g><g stroke-linecap="round"><g transform="translate(505.98828125 63.59375) rotate(0 -0.09221339363602965 129.80159958042208)"><path d="M-0.65 -0.75 C-0.75 42.63, -0.4 217.01, -0.4 260.35 M1.21 1.47 C0.93 44.51, -0.92 215.53, -1.39 258.72" stroke="#343a40" stroke-width="2" fill="none"></path></g></g><g stroke-linecap="round"><g transform="translate(492.9396270807832 61.934910238161706) rotate(0 176.45652190130204 -1.3094272492453456)"><path d="M-0.57 0.32 C58.41 -0.12, 294.5 -2.4, 353.48 -2.94 M1.33 -0.56 C60.16 -0.8, 293.9 -1.4, 352.4 -1.59" stroke="#343a40" stroke-width="2" fill="none"></path></g></g><g stroke-linecap="round"><g transform="translate(502.4921875 326.3203125) rotate(0 179.3622300973721 -4.503053658828151)"><path d="M0.59 0.21 C60.65 -1.32, 299.52 -7.7, 359.28 -9.22 M-0.56 -0.72 C59.48 -2.06, 298.77 -6.66, 358.63 -7.79" stroke="#343a40" stroke-width="2" fill="none"></path></g></g><g stroke-linecap="round"><g transform="translate(849.69140625 57.36328125) rotate(0 0.3537406094000062 135.57037822116166)"><path d="M-0.52 -0.15 C-0.64 45.12, 0.09 225.86, 0.2 271.2 M1.41 -1.28 C1.06 44.18, -0.37 226.67, -0.7 272.42" stroke="#343a40" stroke-width="2" fill="none"></path></g></g><g stroke-linecap="round"><g transform="translate(504.96484375 112.11328125) rotate(0 178.43696458302446 -2.4274883680231483)"><path d="M-0.29 -0.42 C59.1 -0.78, 297.75 -2.46, 357.16 -2.91 M1.76 -1.69 C60.99 -2.29, 297.67 -3.89, 356.59 -4.43" stroke="#343a40" stroke-width="2" fill="none"></path></g></g><g stroke-linecap="round"><g transform="translate(509.32421875 165.9765625) rotate(0 171.04662366717127 -2.457519877329446)"><path d="M0.31 0.32 C57.69 -0.6, 286.17 -4.61, 343.08 -5.24 M-0.98 -0.55 C56.4 -1.37, 284.91 -3.37, 342.45 -4.16" stroke="#343a40" stroke-width="2" fill="none"></path></g></g><g stroke-linecap="round"><g transform="translate(505.3359375 216.53125) rotate(0 172.1042129599117 -1.3569933535717382)"><path d="M0.19 -0.74 C57.44 -1.07, 285.93 -1.85, 343.22 -2.41 M-1.18 1.48 C56.47 0.84, 288.03 -3.39, 345.39 -4.2" stroke="#343a40" stroke-width="2" fill="none"></path></g></g><g stroke-linecap="round"><g transform="translate(505.56640625 270.90234375) rotate(0 174.1421747130342 -3.1703761275857687)"><path d="M0.58 0.33 C58.69 -0.71, 290.57 -5.67, 348.86 -6.67 M-0.58 -0.55 C57.31 -1.36, 289.2 -4.07, 347.63 -5.24" stroke="#343a40" stroke-width="2" fill="none"></path></g></g><g stroke-linecap="round"><g transform="translate(552.53125 61.1328125) rotate(0 0.09297903727741641 136.85105679316445)"><path d="M-0.77 1.13 C-0.72 46.52, 0.02 227.66, -0.16 273.02 M1.02 0.68 C1 45.65, -0.73 226.02, -0.84 271.12" stroke="#343a40" stroke-width="2" fill="none"></path></g></g><g stroke-linecap="round"><g transform="translate(606.25390625 60.12109375) rotate(0 -1.3919287103507827 131.15091198602693)"><path d="M0.59 0.13 C0.06 43.67, -1.98 218.18, -2.32 262 M-0.55 -0.85 C-1.34 42.76, -3.16 218.92, -3.38 263.15" stroke="#343a40" stroke-width="2" fill="none"></path></g></g><g stroke-linecap="round"><g transform="translate(649.453125 323.6953125) rotate(0 1.5862151499837864 -129.26495256247)"><path d="M-0.8 0.08 C-0.08 -42.6, 2.97 -213.96, 3.97 -256.69 M0.99 -0.92 C1.56 -43.92, 2.31 -215.72, 2.99 -258.61" stroke="#343a40" stroke-width="2" fill="none"></path></g></g><g stroke-linecap="round"><g transform="translate(694.5078125 62.39453125) rotate(0 1.953381248274809 131.37802643319588)"><path d="M0.91 -0.78 C1.11 42.89, 1.53 218.26, 1.84 262.23 M-0.07 1.42 C0.43 45.24, 3.64 219.7, 3.98 263.54" stroke="#343a40" stroke-width="2" fill="none"></path></g></g><g stroke-linecap="round"><g transform="translate(751.98046875 322.5078125) rotate(0 -0.6973838122003144 -138.0764867838472)"><path d="M0.61 0.11 C0.57 -45.82, -0.91 -230.25, -1.12 -276.27 M-0.52 -0.87 C-0.64 -46.61, -1.91 -229.42, -2.01 -275.1" stroke="#343a40" stroke-width="2" fill="none"></path></g></g><g stroke-linecap="round"><g transform="translate(802.14453125 55.3984375) rotate(0 0.16134692063553757 133.11908099869265)"><path d="M-0.29 -0.33 C-0.23 44.09, -0.6 221.67, -0.58 266.22 M1.76 -1.55 C1.76 43.1, -1.04 223.35, -1.44 267.79" stroke="#343a40" stroke-width="2" fill="none"></path></g></g><g transform="translate(519.140625 77.92578125) rotate(0 10 10)"><text x="0" y="14" font-family="Virgil, Segoe UI Emoji" font-size="16px" fill="#343a40" text-anchor="start" style="white-space: pre;" direction="ltr">45</text></g><g transform="translate(569.53125 78.7890625) rotate(0 10.5 10)"><text x="0" y="14" font-family="Virgil, Segoe UI Emoji" font-size="16px" fill="#343a40" text-anchor="start" style="white-space: pre;" direction="ltr">34</text></g><g transform="translate(619.84375 80.52734375) rotate(0 11 10)"><text x="0" y="14" font-family="Virgil, Segoe UI Emoji" font-size="16px" fill="#343a40" text-anchor="start" style="white-space: pre;" direction="ltr">177</text></g><g transform="translate(667.6640625 81.9765625) rotate(0 11 10)"><text x="0" y="14" font-family="Virgil, Segoe UI Emoji" font-size="16px" fill="#343a40" text-anchor="start" style="white-space: pre;" direction="ltr">32</text></g><g transform="translate(567.41015625 180.08203125) rotate(0 15 10)"><text x="0" y="14" font-family="Virgil, Segoe UI Emoji" font-size="16px" fill="#343a40" text-anchor="start" style="white-space: pre;" direction="ltr">276</text></g><g transform="translate(713.45703125 234.66015625) rotate(0 2 10)"><text x="0" y="14" font-family="Virgil, Segoe UI Emoji" font-size="16px" fill="#343a40" text-anchor="start" style="white-space: pre;" direction="ltr">1</text></g><g transform="translate(767.70703125 283.61328125) rotate(0 10 10)"><text x="0" y="14" font-family="Virgil, Segoe UI Emoji" font-size="16px" fill="#343a40" text-anchor="start" style="white-space: pre;" direction="ltr">211</text></g><g transform="translate(669.55859375 132.8984375) rotate(0 5 10)"><text x="0" y="14" font-family="Virgil, Segoe UI Emoji" font-size="16px" fill="#343a40" text-anchor="start" style="white-space: pre;" direction="ltr">9</text></g><g transform="translate(618.11328125 131.13671875) rotate(0 11 10)"><text x="0" y="14" font-family="Virgil, Segoe UI Emoji" font-size="16px" fill="#343a40" text-anchor="start" style="white-space: pre;" direction="ltr">42</text></g><g transform="translate(567 134.26953125) rotate(0 11 10)"><text x="0" y="14" font-family="Virgil, Segoe UI Emoji" font-size="16px" fill="#343a40" text-anchor="start" style="white-space: pre;" direction="ltr">32</text></g><g transform="translate(520.49609375 130.421875) rotate(0 11 10)"><text x="0" y="14" font-family="Virgil, Segoe UI Emoji" font-size="16px" fill="#343a40" text-anchor="start" style="white-space: pre;" direction="ltr">32</text></g><g transform="translate(518.5 183.46875) rotate(0 11 10)"><text x="0" y="14" font-family="Virgil, Segoe UI Emoji" font-size="16px" fill="#343a40" text-anchor="start" style="white-space: pre;" direction="ltr">32</text></g><g transform="translate(711.296875 81.41796875) rotate(0 11 10)"><text x="0" y="14" font-family="Virgil, Segoe UI Emoji" font-size="16px" fill="#343a40" text-anchor="start" style="white-space: pre;" direction="ltr">32</text></g><g transform="translate(617.546875 181.1328125) rotate(0 13.5 10)"><text x="0" y="14" font-family="Virgil, Segoe UI Emoji" font-size="16px" fill="#343a40" text-anchor="start" style="white-space: pre;" direction="ltr">210</text></g><g transform="translate(766.71484375 184.26953125) rotate(0 11 10)"><text x="0" y="14" font-family="Virgil, Segoe UI Emoji" font-size="16px" fill="#343a40" text-anchor="start" style="white-space: pre;" direction="ltr">23</text></g><g transform="translate(710.83984375 184.15625) rotate(0 11.5 10)"><text x="0" y="14" font-family="Virgil, Segoe UI Emoji" font-size="16px" fill="#343a40" text-anchor="start" style="white-space: pre;" direction="ltr">22</text></g><g transform="translate(662.07421875 181.17578125) rotate(0 7 10)"><text x="0" y="14" font-family="Virgil, Segoe UI Emoji" font-size="16px" fill="#343a40" text-anchor="start" style="white-space: pre;" direction="ltr">15</text></g><g transform="translate(815.1953125 130.078125) rotate(0 11 10)"><text x="0" y="14" font-family="Virgil, Segoe UI Emoji" font-size="16px" fill="#343a40" text-anchor="start" style="white-space: pre;" direction="ltr">32</text></g><g transform="translate(768.71875 131.51953125) rotate(0 13.5 10)"><text x="0" y="14" font-family="Virgil, Segoe UI Emoji" font-size="16px" fill="#343a40" text-anchor="start" style="white-space: pre;" direction="ltr">120</text></g><g transform="translate(712.55859375 131.4765625) rotate(0 13.5 10)"><text x="0" y="14" font-family="Virgil, Segoe UI Emoji" font-size="16px" fill="#343a40" text-anchor="start" style="white-space: pre;" direction="ltr">201</text></g><g transform="translate(817.39453125 79.59375) rotate(0 12 10)"><text x="0" y="14" font-family="Virgil, Segoe UI Emoji" font-size="16px" fill="#343a40" text-anchor="start" style="white-space: pre;" direction="ltr">127</text></g><g transform="translate(766.3125 78.83203125) rotate(0 11 10)"><text x="0" y="14" font-family="Virgil, Segoe UI Emoji" font-size="16px" fill="#343a40" text-anchor="start" style="white-space: pre;" direction="ltr">32</text></g><g transform="translate(716.01953125 284.2890625) rotate(0 4.5 10)"><text x="0" y="14" font-family="Virgil, Segoe UI Emoji" font-size="16px" fill="#343a40" text-anchor="start" style="white-space: pre;" direction="ltr">11</text></g><g transform="translate(819.37109375 231.7734375) rotate(0 10 10)"><text x="0" y="14" font-family="Virgil, Segoe UI Emoji" font-size="16px" fill="#343a40" text-anchor="start" style="white-space: pre;" direction="ltr">70</text></g><g transform="translate(614.23046875 288.55078125) rotate(0 12 10)"><text x="0" y="14" font-family="Virgil, Segoe UI Emoji" font-size="16px" fill="#343a40" text-anchor="start" style="white-space: pre;" direction="ltr">165</text></g><g transform="translate(566.66796875 289.9609375) rotate(0 13 10)"><text x="0" y="14" font-family="Virgil, Segoe UI Emoji" font-size="16px" fill="#343a40" text-anchor="start" style="white-space: pre;" direction="ltr">140</text></g><g transform="translate(571.36328125 235.7421875) rotate(0 10 10)"><text x="0" y="14" font-family="Virgil, Segoe UI Emoji" font-size="16px" fill="#343a40" text-anchor="start" style="white-space: pre;" direction="ltr">101</text></g><g transform="translate(610.33203125 236.78515625) rotate(0 16.5 10)"><text x="0" y="14" font-family="Virgil, Segoe UI Emoji" font-size="16px" fill="#343a40" text-anchor="start" style="white-space: pre;" direction="ltr">230</text></g><g transform="translate(666.33984375 288.0234375) rotate(0 11 10)"><text x="0" y="14" font-family="Virgil, Segoe UI Emoji" font-size="16px" fill="#343a40" text-anchor="start" style="white-space: pre;" direction="ltr">89</text></g><g transform="translate(816.54296875 281.140625) rotate(0 12 10)"><text x="0" y="14" font-family="Virgil, Segoe UI Emoji" font-size="16px" fill="#343a40" text-anchor="start" style="white-space: pre;" direction="ltr">145</text></g><g transform="translate(518.67578125 292.50390625) rotate(0 13 10)"><text x="0" y="14" font-family="Virgil, Segoe UI Emoji" font-size="16px" fill="#343a40" text-anchor="start" style="white-space: pre;" direction="ltr">106</text></g><g transform="translate(667.66796875 235.8984375) rotate(0 4.5 10)"><text x="0" y="14" font-family="Virgil, Segoe UI Emoji" font-size="16px" fill="#343a40" text-anchor="start" style="white-space: pre;" direction="ltr">11</text></g><g transform="translate(769.9765625 232.6875) rotate(0 10.5 10)"><text x="0" y="14" font-family="Virgil, Segoe UI Emoji" font-size="16px" fill="#343a40" text-anchor="start" style="white-space: pre;" direction="ltr">50</text></g><g transform="translate(819.5859375 179.6796875) rotate(0 8.5 10)"><text x="0" y="14" font-family="Virgil, Segoe UI Emoji" font-size="16px" fill="#343a40" text-anchor="start" style="white-space: pre;" direction="ltr">77</text></g><g transform="translate(523.6640625 238.6484375) rotate(0 10 10)"><text x="0" y="14" font-family="Virgil, Segoe UI Emoji" font-size="16px" fill="#343a40" text-anchor="start" style="white-space: pre;" direction="ltr">56</text></g><g stroke-linecap="round"><g transform="translate(901.599609375 199.9453125) rotate(0 34.010326509494234 -1.0188258239813308)"><path d="M0 -0.74 C11.38 -1.32, 58.06 -3.32, 69.48 -3.52 M-1.45 1.48 C9.68 1.02, 56.57 -1.62, 68.65 -2.55" stroke="#343a40" stroke-width="2" fill="none"></path></g><g transform="translate(901.599609375 199.9453125) rotate(0 34.010326509494234 -1.0188258239813308)"><path d="M39.95 9.91 C50.38 3.46, 63.96 0.43, 68.36 -3.85 M41.89 8.58 C49.61 6.38, 56.87 2.82, 69.45 -2.25" stroke="#343a40" stroke-width="2" fill="none"></path></g><g transform="translate(901.599609375 199.9453125) rotate(0 34.010326509494234 -1.0188258239813308)"><path d="M38.62 -10.57 C49.57 -8.83, 63.68 -3.67, 68.36 -3.85 M40.56 -11.9 C48.81 -8, 56.47 -5.45, 69.45 -2.25" stroke="#343a40" stroke-width="2" fill="none"></path></g></g><g stroke-linecap="round"><g transform="translate(1024.5614364596083 70.240234375) rotate(0 -0.37614122139257233 129.6472574774176)"><path d="M0.35 -0.83 C0.24 42.56, -0.09 216.9, -0.13 260.12 M-0.93 1.35 C-1.23 44.41, -1.06 215.36, -0.97 258.37" stroke="#343a40" stroke-width="2" fill="none"></path></g></g><g stroke-linecap="round"><g transform="translate(1011.5127822903914 68.58139461316159) rotate(0 176.79658456202594 -1.8791910149436717)"><path d="M-0.83 0.2 C58.28 -0.2, 295.48 -1.63, 354.42 -2.09 M0.94 -0.74 C59.96 -1.54, 294.79 -3.88, 353.84 -3.96" stroke="#343a40" stroke-width="2" fill="none"></path></g></g><g stroke-linecap="round"><g transform="translate(1021.0653427096083 332.966796875) rotate(0 179.02415487216786 -4.608637958392478)"><path d="M0.2 0.69 C60.01 -0.82, 299.44 -8.18, 359.2 -9.91 M-1.15 0.01 C58.51 -1.3, 298.65 -7.39, 358.5 -8.84" stroke="#343a40" stroke-width="2" fill="none"></path></g></g><g stroke-linecap="round"><g transform="translate(1368.264561459608 64.009765625) rotate(0 0.33709499061251336 136.53215250471612)"><path d="M0.69 0.48 C0.7 45.75, -0.58 226.68, -0.79 271.82 M-0.4 -0.31 C0.05 45.15, 1.67 227.92, 1.45 273.37" stroke="#343a40" stroke-width="2" fill="none"></path></g></g><g stroke-linecap="round"><g transform="translate(1023.5379989596083 118.759765625) rotate(0 177.8722595000453 -1.733704561907814)"><path d="M0.48 -0.9 C59.86 -1.8, 297.22 -4.27, 356.47 -4.72 M-0.72 1.25 C58.48 0.43, 296.25 -2.37, 355.53 -3.53" stroke="#343a40" stroke-width="2" fill="none"></path></g></g><g stroke-linecap="round"><g transform="translate(1027.8973739596083 172.623046875) rotate(0 171.62537763430737 -2.3929856065660715)"><path d="M-0.9 0.03 C55.95 -0.86, 284.49 -3.92, 341.79 -4.81 M0.84 -1.01 C58.02 -1.77, 287.22 -2.93, 344.15 -3.51" stroke="#343a40" stroke-width="2" fill="none"></path></g></g><g stroke-linecap="round"><g transform="translate(1023.9090927096083 223.177734375) rotate(0 171.1985767658242 -1.4555618495866725)"><path d="M0.03 -0.67 C57.25 -0.96, 286.6 -2.23, 343.82 -2.61 M-1.42 1.59 C55.56 1.01, 284.77 -3.97, 342.63 -4.5" stroke="#343a40" stroke-width="2" fill="none"></path></g></g><g stroke-linecap="round"><g transform="translate(1024.1395614596083 277.548828125) rotate(0 174.590222949162 -3.921458495035779)"><path d="M-0.67 -0.45 C57.78 -1.69, 291.49 -6.2, 349.85 -7.39 M1.17 -1.73 C59.59 -2.85, 291.2 -5.5, 349.14 -6.35" stroke="#343a40" stroke-width="2" fill="none"></path></g></g><g stroke-linecap="round"><g transform="translate(1071.1044052096086 67.779296875) rotate(0 -0.04789479242845118 136.9589004363492)"><path d="M-0.45 0.45 C-0.72 46.01, -1.39 227.32, -1.61 272.69 M1.51 -0.36 C1.61 45.47, 0.77 228.55, 0.61 274.28" stroke="#343a40" stroke-width="2" fill="none"></path></g></g><g stroke-linecap="round"><g transform="translate(1124.8270614596086 66.767578125) rotate(0 -1.2280860026273785 130.81150467337113)"><path d="M0.45 -0.94 C0.22 42.74, -1.59 217.76, -2.01 261.61 M-0.78 1.18 C-1.09 45.01, -2.57 218.89, -2.9 262.56" stroke="#343a40" stroke-width="2" fill="none"></path></g></g><g stroke-linecap="round"><g transform="translate(1168.0262802096086 330.341796875) rotate(0 2.051113065946879 -128.45630035959186)"><path d="M-0.94 0.1 C-0.38 -42.81, 2.18 -214.33, 2.91 -257.02 M0.77 -0.89 C1.73 -43.63, 4.76 -212.62, 5.04 -255.44" stroke="#343a40" stroke-width="2" fill="none"></path></g></g><g stroke-linecap="round"><g transform="translate(1213.0809677096086 69.041015625) rotate(0 0.8543590694107479 131.12063026254998)"><path d="M0.1 -1.11 C0.53 42.73, 2.36 218.15, 3.01 262.1 M-1.3 0.92 C-1.07 44.99, 1.25 219.53, 2.1 263.36" stroke="#343a40" stroke-width="2" fill="none"></path></g></g><g stroke-linecap="round"><g transform="translate(1270.5536239596086 329.154296875) rotate(0 -1.2508632983639245 -138.00719553442667)"><path d="M-1.11 0.07 C-1.25 -45.7, -1.74 -228.75, -1.77 -274.51 M0.5 -0.94 C0.24 -47.03, -2.57 -230.19, -3 -276.08" stroke="#343a40" stroke-width="2" fill="none"></path></g></g><g stroke-linecap="round"><g transform="translate(1320.717686459608 62.044921875) rotate(0 -0.525753719964996 133.5215444621537)"><path d="M0.07 -0.55 C0.1 43.99, 0.26 221.56, 0.3 266.09 M-1.35 1.78 C-1.4 46.61, -0.34 223.81, -0.1 267.59" stroke="#343a40" stroke-width="2" fill="none"></path></g></g><g transform="translate(1037.7137802096083 84.572265625) rotate(0 10 10)"><text x="0" y="14" font-family="Virgil, Segoe UI Emoji" font-size="16px" fill="#343a40" text-anchor="start" style="white-space: pre;" direction="ltr">45</text></g><g transform="translate(1088.1044052096086 85.435546875) rotate(0 10.5 10)"><text x="0" y="14" font-family="Virgil, Segoe UI Emoji" font-size="16px" fill="#343a40" text-anchor="start" style="white-space: pre;" direction="ltr">34</text></g><g transform="translate(1138.4169052096086 87.173828125) rotate(0 11 10)"><text x="0" y="14" font-family="Virgil, Segoe UI Emoji" font-size="16px" fill="#343a40" text-anchor="start" style="white-space: pre;" direction="ltr">177</text></g><g transform="translate(1186.2372177096086 88.623046875) rotate(0 11 10)"><text x="0" y="14" font-family="Virgil, Segoe UI Emoji" font-size="16px" fill="#343a40" text-anchor="start" style="white-space: pre;" direction="ltr">32</text></g><g transform="translate(1085.9833114596086 186.728515625) rotate(0 15 10)"><text x="0" y="14" font-family="Virgil, Segoe UI Emoji" font-size="16px" fill="#343a40" text-anchor="start" style="white-space: pre;" direction="ltr">276</text></g><g transform="translate(1232.0301864596086 241.306640625) rotate(0 2 10)"><text x="0" y="14" font-family="Virgil, Segoe UI Emoji" font-size="16px" fill="#343a40" text-anchor="start" style="white-space: pre;" direction="ltr">1</text></g><g transform="translate(1286.2801864596086 290.259765625) rotate(0 10 10)"><text x="0" y="14" font-family="Virgil, Segoe UI Emoji" font-size="16px" fill="#343a40" text-anchor="start" style="white-space: pre;" direction="ltr">211</text></g><g transform="translate(1188.1317489596086 139.544921875) rotate(0 5 10)"><text x="0" y="14" font-family="Virgil, Segoe UI Emoji" font-size="16px" fill="#343a40" text-anchor="start" style="white-space: pre;" direction="ltr">9</text></g><g transform="translate(1136.6864364596086 137.783203125) rotate(0 11 10)"><text x="0" y="14" font-family="Virgil, Segoe UI Emoji" font-size="16px" fill="#343a40" text-anchor="start" style="white-space: pre;" direction="ltr">42</text></g><g transform="translate(1085.5731552096086 140.916015625) rotate(0 11 10)"><text x="0" y="14" font-family="Virgil, Segoe UI Emoji" font-size="16px" fill="#343a40" text-anchor="start" style="white-space: pre;" direction="ltr">32</text></g><g transform="translate(1039.0692489596086 137.068359375) rotate(0 11 10)"><text x="0" y="14" font-family="Virgil, Segoe UI Emoji" font-size="16px" fill="#343a40" text-anchor="start" style="white-space: pre;" direction="ltr">32</text></g><g transform="translate(1037.0731552096083 190.115234375) rotate(0 11 10)"><text x="0" y="14" font-family="Virgil, Segoe UI Emoji" font-size="16px" fill="#343a40" text-anchor="start" style="white-space: pre;" direction="ltr">32</text></g><g transform="translate(1229.8700302096086 88.064453125) rotate(0 11 10)"><text x="0" y="14" font-family="Virgil, Segoe UI Emoji" font-size="16px" fill="#343a40" text-anchor="start" style="white-space: pre;" direction="ltr">32</text></g><g transform="translate(1136.1200302096086 187.779296875) rotate(0 13.5 10)"><text x="0" y="14" font-family="Virgil, Segoe UI Emoji" font-size="16px" fill="#343a40" text-anchor="start" style="white-space: pre;" direction="ltr">210</text></g><g transform="translate(1285.2879989596086 190.916015625) rotate(0 11 10)"><text x="0" y="14" font-family="Virgil, Segoe UI Emoji" font-size="16px" fill="#343a40" text-anchor="start" style="white-space: pre;" direction="ltr">23</text></g><g transform="translate(1229.4129989596086 190.802734375) rotate(0 11.5 10)"><text x="0" y="14" font-family="Virgil, Segoe UI Emoji" font-size="16px" fill="#343a40" text-anchor="start" style="white-space: pre;" direction="ltr">22</text></g><g transform="translate(1180.6473739596086 187.822265625) rotate(0 7 10)"><text x="0" y="14" font-family="Virgil, Segoe UI Emoji" font-size="16px" fill="#343a40" text-anchor="start" style="white-space: pre;" direction="ltr">15</text></g><g transform="translate(1333.768467709608 136.724609375) rotate(0 11 10)"><text x="0" y="14" font-family="Virgil, Segoe UI Emoji" font-size="16px" fill="#343a40" text-anchor="start" style="white-space: pre;" direction="ltr">32</text></g><g transform="translate(1287.2919052096086 138.166015625) rotate(0 13.5 10)"><text x="0" y="14" font-family="Virgil, Segoe UI Emoji" font-size="16px" fill="#343a40" text-anchor="start" style="white-space: pre;" direction="ltr">120</text></g><g transform="translate(1231.1317489596086 138.123046875) rotate(0 13.5 10)"><text x="0" y="14" font-family="Virgil, Segoe UI Emoji" font-size="16px" fill="#343a40" text-anchor="start" style="white-space: pre;" direction="ltr">201</text></g><g transform="translate(1335.967686459608 86.240234375) rotate(0 12 10)"><text x="0" y="14" font-family="Virgil, Segoe UI Emoji" font-size="16px" fill="#343a40" text-anchor="start" style="white-space: pre;" direction="ltr">127</text></g><g transform="translate(1284.8856552096086 85.478515625) rotate(0 11 10)"><text x="0" y="14" font-family="Virgil, Segoe UI Emoji" font-size="16px" fill="#343a40" text-anchor="start" style="white-space: pre;" direction="ltr">32</text></g><g transform="translate(1234.5926864596086 290.935546875) rotate(0 4.5 10)"><text x="0" y="14" font-family="Virgil, Segoe UI Emoji" font-size="16px" fill="#343a40" text-anchor="start" style="white-space: pre;" direction="ltr">11</text></g><g transform="translate(1337.944248959608 238.419921875) rotate(0 10 10)"><text x="0" y="14" font-family="Virgil, Segoe UI Emoji" font-size="16px" fill="#343a40" text-anchor="start" style="white-space: pre;" direction="ltr">70</text></g><g transform="translate(1132.8036239596086 295.197265625) rotate(0 12 10)"><text x="0" y="14" font-family="Virgil, Segoe UI Emoji" font-size="16px" fill="#343a40" text-anchor="start" style="white-space: pre;" direction="ltr">165</text></g><g transform="translate(1085.2411239596086 296.607421875) rotate(0 13 10)"><text x="0" y="14" font-family="Virgil, Segoe UI Emoji" font-size="16px" fill="#343a40" text-anchor="start" style="white-space: pre;" direction="ltr">140</text></g><g transform="translate(1089.9364364596086 242.388671875) rotate(0 10 10)"><text x="0" y="14" font-family="Virgil, Segoe UI Emoji" font-size="16px" fill="#343a40" text-anchor="start" style="white-space: pre;" direction="ltr">101</text></g><g transform="translate(1128.9051864596086 243.431640625) rotate(0 16.5 10)"><text x="0" y="14" font-family="Virgil, Segoe UI Emoji" font-size="16px" fill="#343a40" text-anchor="start" style="white-space: pre;" direction="ltr">230</text></g><g transform="translate(1184.9129989596086 294.669921875) rotate(0 11 10)"><text x="0" y="14" font-family="Virgil, Segoe UI Emoji" font-size="16px" fill="#343a40" text-anchor="start" style="white-space: pre;" direction="ltr">89</text></g><g transform="translate(1335.116123959608 287.787109375) rotate(0 12 10)"><text x="0" y="14" font-family="Virgil, Segoe UI Emoji" font-size="16px" fill="#343a40" text-anchor="start" style="white-space: pre;" direction="ltr">145</text></g><g transform="translate(1037.2489364596083 299.150390625) rotate(0 13 10)"><text x="0" y="14" font-family="Virgil, Segoe UI Emoji" font-size="16px" fill="#343a40" text-anchor="start" style="white-space: pre;" direction="ltr">106</text></g><g transform="translate(1186.2411239596086 242.544921875) rotate(0 4.5 10)"><text x="0" y="14" font-family="Virgil, Segoe UI Emoji" font-size="16px" fill="#343a40" text-anchor="start" style="white-space: pre;" direction="ltr">11</text></g><g transform="translate(1288.5497177096086 239.333984375) rotate(0 10.5 10)"><text x="0" y="14" font-family="Virgil, Segoe UI Emoji" font-size="16px" fill="#343a40" text-anchor="start" style="white-space: pre;" direction="ltr">50</text></g><g transform="translate(1338.159092709608 186.326171875) rotate(0 8.5 10)"><text x="0" y="14" font-family="Virgil, Segoe UI Emoji" font-size="16px" fill="#343a40" text-anchor="start" style="white-space: pre;" direction="ltr">77</text></g><g transform="translate(1042.2372177096086 245.294921875) rotate(0 10 10)"><text x="0" y="14" font-family="Virgil, Segoe UI Emoji" font-size="16px" fill="#343a40" text-anchor="start" style="white-space: pre;" direction="ltr">56</text></g><g stroke-linecap="round" transform="translate(1174.13671875 68.0234375) rotate(0 18.349609375 21.484375)"><path d="M0.26 5.52 C0.26 5.52, 0.26 5.52, 0.26 5.52 M0.26 5.52 C0.26 5.52, 0.26 5.52, 0.26 5.52 M0.65 11.17 C2.4 7.79, 4.8 7.32, 9.84 0.6 M0.65 11.17 C3.55 7.09, 7.33 3.24, 9.84 0.6 M0.39 17.56 C1.65 15.78, 7.65 11.07, 14.82 0.96 M0.39 17.56 C5.09 11.67, 11.21 3.76, 14.82 0.96 M0.79 23.21 C5.7 15.3, 10.91 9.34, 20.47 0.57 M0.79 23.21 C6.1 16.64, 11.65 10.52, 20.47 0.57 M0.52 29.61 C7.3 22.83, 14.98 10.61, 25.45 0.93 M0.52 29.61 C7.7 22.77, 13.88 13.75, 25.45 0.93 M0.26 36 C8.05 26.6, 19.24 14.68, 30.44 1.29 M0.26 36 C10.81 22.94, 22.49 11.03, 30.44 1.29 M2.63 39.38 C11.94 26.25, 24.41 12.6, 34.12 3.16 M2.63 39.38 C10.05 29, 19.63 21.27, 34.12 3.16 M4.99 42.76 C18.15 29.99, 30.77 15.1, 37.13 5.78 M4.99 42.76 C13.18 32.52, 20.97 24.3, 37.13 5.78 M10.63 42.37 C17.97 32.38, 27.46 21.67, 36.87 12.18 M10.63 42.37 C14.87 35.57, 22.08 30.14, 36.87 12.18 M15.62 42.73 C23.34 36.64, 26.65 28.08, 37.27 17.82 M15.62 42.73 C21 36.88, 27.39 30.7, 37.27 17.82 M21.26 42.33 C23.97 37.82, 29.88 33.62, 37.66 23.46 M21.26 42.33 C24.45 38.45, 29.03 32.54, 37.66 23.46 M26.25 42.69 C26.85 41.18, 32.22 38.46, 37.4 29.86 M26.25 42.69 C30.03 38.89, 32.37 35, 37.4 29.86 M31.89 42.3 C32.68 40.35, 35.12 38.51, 38.45 34.75 M31.89 42.3 C34.35 39.48, 36.66 36.64, 38.45 34.75 M5.38 42.59 C5.38 42.59, 5.38 42.59, 5.38 42.59 M5.38 42.59 C5.38 42.59, 5.38 42.59, 5.38 42.59 M11.02 42.19 C8.23 39.9, 3.75 36.85, 2.72 34.98 M11.02 42.19 C8.2 39.51, 4.95 37.43, 2.72 34.98 M17.42 42.45 C15.11 39.44, 8.06 36.86, 3.08 29.99 M17.42 42.45 C12.75 37.19, 6.39 32.6, 3.08 29.99 M23.82 42.71 C17.72 38.43, 10.91 32.55, 2.69 24.35 M23.82 42.71 C17.86 38.67, 13.34 33.77, 2.69 24.35 M29.46 42.32 C25.2 36.14, 18.64 33.62, 3.05 19.36 M29.46 42.32 C19.3 33.85, 9.72 25.09, 3.05 19.36 M33.6 40.61 C24.43 32.23, 17.32 28.81, 2.65 13.71 M33.6 40.61 C26.04 36.06, 20.27 29.64, 2.65 13.71 M36.22 37.59 C30.22 29.82, 19.81 23.71, 3.01 8.73 M36.22 37.59 C24.18 27.22, 10.2 15.91, 3.01 8.73 M37.34 33.26 C28.66 24.2, 18.08 16.27, 2.62 3.08 M37.34 33.26 C27.73 25.59, 17.11 15.33, 2.62 3.08 M36.94 27.62 C31.84 21.71, 23.57 15.36, 5.24 0.07 M36.94 27.62 C30.32 21.59, 21.75 16.02, 5.24 0.07 M37.3 22.63 C30.3 17.25, 20.96 10.71, 10.13 -0.98 M37.3 22.63 C29.91 15.52, 21.26 10.38, 10.13 -0.98 M36.91 16.99 C32.61 10.89, 27.31 9.32, 16.53 -0.72 M36.91 16.99 C28.42 9.67, 22.25 4.62, 16.53 -0.72 M36.51 11.35 C32.57 7.81, 27.09 2.65, 22.93 -0.46 M36.51 11.35 C32.45 9.2, 29.46 6.48, 22.93 -0.46 M36.87 6.36 C36.08 5.68, 32.24 3.19, 28.57 -0.86 M36.87 6.36 C33.66 3.19, 30.04 0.89, 28.57 -0.86" stroke="#fa5252" stroke-width="0.5" fill="none"></path><path d="M9.17 0 M9.17 0 C13.55 -0.08, 18.1 0.04, 27.52 0 M27.52 0 C35.53 -0.95, 37.91 1.9, 36.7 9.17 M36.7 9.17 C37.24 16.64, 37.4 24.64, 36.7 33.79 M36.7 33.79 C35.79 40.04, 35.46 42.33, 27.52 42.97 M27.52 42.97 C24.1 43.22, 18.48 43.01, 9.17 42.97 M9.17 42.97 C2.45 44.93, -0.67 39.95, 0 33.79 M0 33.79 C-1.12 25.95, 2.04 13.37, 0 9.17 M0 9.17 C-0.78 3.83, 4.08 1.08, 9.17 0" stroke="#343a40" stroke-width="1.5" fill="none" stroke-dasharray="1.5 7"></path></g><g stroke-linecap="round" transform="translate(1214.2734375 222.01171875) rotate(0 25.75390625 26.322265625)"><path d="M5.07 1.76 C5.07 1.76, 5.07 1.76, 5.07 1.76 M5.07 1.76 C5.07 1.76, 5.07 1.76, 5.07 1.76 M3.5 9.67 C7.41 7.76, 9.3 3.27, 11.37 0.61 M3.5 9.67 C4.82 7.46, 7.31 5.89, 11.37 0.61 M3.24 16.07 C6.61 9.73, 12.38 6.31, 15.05 2.48 M3.24 16.07 C6.37 11.5, 10.61 8.19, 15.05 2.48 M2.98 22.46 C7.23 16.13, 12.04 15.43, 20.69 2.09 M2.98 22.46 C9.3 15.66, 15.74 7.16, 20.69 2.09 M3.37 28.11 C11.39 18.73, 16.86 12.64, 25.68 2.45 M3.37 28.11 C8.85 20.6, 16.11 12.85, 25.68 2.45 M3.11 34.5 C10.12 27.11, 17.91 17.88, 31.32 2.05 M3.11 34.5 C9.09 27.48, 15 19.18, 31.32 2.05 M2.19 41.66 C17.06 26.96, 29.71 8.99, 36.31 2.41 M2.19 41.66 C13.03 29.67, 22.91 17.02, 36.31 2.41 M1.93 48.05 C16.29 32.5, 33.24 11.88, 42.61 1.26 M1.93 48.05 C17.4 30.49, 32.69 11.22, 42.61 1.26 M4.95 50.68 C14.73 38.83, 27.15 26.42, 46.94 2.38 M4.95 50.68 C19.35 32.73, 35.4 16.43, 46.94 2.38 M7.97 53.3 C21.87 39.17, 34.92 22.78, 49.96 5 M7.97 53.3 C23.41 34.82, 40.71 16.81, 49.96 5 M12.3 54.42 C25.35 35.6, 40.17 18.82, 51.01 9.89 M12.3 54.42 C26.66 37.51, 40.96 22.47, 51.01 9.89 M17.29 54.78 C30.57 43.29, 38.02 27.43, 52.71 14.02 M17.29 54.78 C24.67 46.47, 33.68 36.2, 52.71 14.02 M22.93 54.38 C33.89 42.4, 44.09 28.5, 52.45 20.42 M22.93 54.38 C30.72 45.76, 39.43 36.11, 52.45 20.42 M27.92 54.74 C32.74 49.71, 39.57 41.5, 52.85 26.06 M27.92 54.74 C35.07 47.48, 41.68 38.25, 52.85 26.06 M33.56 54.35 C39.78 46.7, 48.71 36.7, 52.59 32.46 M33.56 54.35 C40.45 46.85, 46.31 38.08, 52.59 32.46 M39.86 53.2 C44.32 48.51, 47.9 42.89, 52.32 38.86 M39.86 53.2 C44.28 47.01, 48.07 43, 52.32 38.86 M4.92 50.74 C4.92 50.74, 4.92 50.74, 4.92 50.74 M4.92 50.74 C4.92 50.74, 4.92 50.74, 4.92 50.74 M11.32 51 C8.01 49.49, 6.97 45.61, 4.53 45.09 M11.32 51 C9.52 49.15, 6.63 46.96, 4.53 45.09 M17.72 51.26 C14.8 46.53, 8.09 42, 1.87 37.48 M17.72 51.26 C13.25 46.31, 7.44 43.01, 1.87 37.48 M23.36 50.87 C18.42 48.12, 11.41 41.51, 2.23 32.5 M23.36 50.87 C15.37 42.64, 7.11 36.53, 2.23 32.5 M29.76 51.13 C25.42 44.92, 17.23 41.71, 1.83 26.85 M29.76 51.13 C24.91 46.8, 17.47 40.45, 1.83 26.85 M36.15 51.39 C25.79 39.85, 14.26 31.95, 2.19 21.87 M36.15 51.39 C28.09 45.18, 20.62 37.99, 2.19 21.87 M41.04 50.34 C31.21 42.49, 18.9 30.73, 2.55 16.88 M41.04 50.34 C27.79 39.18, 15.97 28.16, 2.55 16.88 M46.69 49.94 C29.93 34.68, 15.45 21.37, 2.91 11.89 M46.69 49.94 C30.36 35.98, 14.45 23.43, 2.91 11.89 M50.06 47.58 C36.06 33.72, 20.46 24.36, 1.76 5.59 M50.06 47.58 C39.67 37.9, 29.89 30.15, 1.76 5.59 M51.18 43.25 C34.44 29.39, 17.8 14.46, 4.39 2.57 M51.18 43.25 C39.65 34.92, 29.77 24.56, 4.39 2.57 M53.8 40.23 C40.18 28.25, 27.51 16.91, 7.01 -0.44 M53.8 40.23 C38.68 25.54, 22.43 11.65, 7.01 -0.44 M53.41 34.59 C46.42 28.5, 38.74 19.99, 13.41 -0.18 M53.41 34.59 C38.08 21.16, 22.93 7.54, 13.41 -0.18 M53.77 29.6 C43.96 22.42, 35.47 13.9, 19.05 -0.58 M53.77 29.6 C47.23 23.35, 38.38 17.6, 19.05 -0.58 M54.13 24.61 C48.26 17.22, 39.16 12.85, 25.45 -0.32 M54.13 24.61 C43.23 15.65, 34.16 6.15, 25.45 -0.32 M53.73 18.97 C48.52 14.62, 45.06 9.55, 31.85 -0.05 M53.73 18.97 C49.1 15.57, 43.57 10.37, 31.85 -0.05 M51.83 12.02 C48.93 8.11, 43.26 6.17, 37.49 -0.45 M51.83 12.02 C47.22 7.78, 43.37 4.69, 37.49 -0.45 M49.93 5.06 C48.91 2.73, 47.01 2.08, 43.13 -0.84 M49.93 5.06 C47.08 2.43, 44.74 1, 43.13 -0.84" stroke="#fa5252" stroke-width="0.5" fill="none"></path><path d="M12.88 0 M12.88 0 C20.64 -1.79, 26.84 -1.51, 38.63 0 M38.63 0 C48.3 1.47, 52.69 4.6, 51.51 12.88 M51.51 12.88 C53.18 20.3, 53.07 28.2, 51.51 39.77 M51.51 39.77 C52.84 48.75, 48.49 51.28, 38.63 52.64 M38.63 52.64 C30.12 53.32, 17.05 52.25, 12.88 52.64 M12.88 52.64 C4.35 51.23, -0.25 46.45, 0 39.77 M0 39.77 C2.03 33.91, 1.41 26.61, 0 12.88 M0 12.88 C0.79 3.69, 3.43 1.31, 12.88 0" stroke="#343a40" stroke-width="1.5" fill="none" stroke-dasharray="1.5 7"></path></g><g stroke-linecap="round" transform="translate(1173.1640625 116.71875) rotate(0 17.19140625 24.193359375)"><path d="M0.73 4.61 C0.73 4.61, 0.73 4.61, 0.73 4.61 M0.73 4.61 C0.73 4.61, 0.73 4.61, 0.73 4.61 M0.47 11.01 C4.75 5.78, 6.98 4.65, 9.66 0.44 M0.47 11.01 C3.96 7.34, 6.9 4.47, 9.66 0.44 M0.86 16.65 C5.16 12.93, 7.77 9.72, 14.64 0.8 M0.86 16.65 C3.9 12.36, 6.88 10.12, 14.64 0.8 M0.6 23.05 C7.02 19.21, 12.54 9.76, 19.63 1.16 M0.6 23.05 C7.19 16.11, 11.98 9.65, 19.63 1.16 M0.34 29.45 C8.48 20.75, 18.94 8.41, 25.27 0.77 M0.34 29.45 C8.12 20.04, 15.8 11.6, 25.27 0.77 M0.74 35.09 C13.3 23.87, 21.52 8.87, 30.26 1.13 M0.74 35.09 C11.93 20.76, 23.4 7.6, 30.26 1.13 M0.48 41.49 C8.58 34.57, 14.24 22.91, 33.28 3.75 M0.48 41.49 C8.49 33.05, 14.63 24.58, 33.28 3.75 M2.18 45.62 C11.2 33.45, 18.37 26.44, 36.3 6.38 M2.18 45.62 C14.14 33.68, 23.94 20.97, 36.3 6.38 M5.2 48.25 C12.86 37.72, 22.23 27.06, 36.04 12.78 M5.2 48.25 C16.51 35.55, 28.16 23.76, 36.04 12.78 M10.84 47.85 C16.18 41.05, 21.16 37.35, 36.43 18.42 M10.84 47.85 C18.05 39.07, 25.58 30.92, 36.43 18.42 M15.83 48.21 C19.94 43.47, 29.3 32.83, 36.17 24.82 M15.83 48.21 C22.63 39.3, 31.91 30.95, 36.17 24.82 M20.82 48.57 C26.15 43.78, 31.55 35.4, 36.56 30.46 M20.82 48.57 C24.04 44.85, 29.33 39.65, 36.56 30.46 M26.46 48.18 C28.93 44.11, 32.26 42.54, 36.3 36.86 M26.46 48.18 C29.08 45.46, 31.32 42.73, 36.3 36.86 M4.8 47.82 C4.8 47.82, 4.8 47.82, 4.8 47.82 M4.8 47.82 C4.8 47.82, 4.8 47.82, 4.8 47.82 M11.2 48.08 C9.85 47.14, 6.17 44.22, 2.9 40.87 M11.2 48.08 C9.07 46.83, 7.39 45.46, 2.9 40.87 M16.84 47.69 C12.01 44.16, 6.56 41.15, 3.26 35.88 M16.84 47.69 C10.67 42.24, 6.83 38.03, 3.26 35.88 M23.24 47.95 C16.62 44.61, 11.08 37.47, 2.87 30.24 M23.24 47.95 C16.87 42.29, 11.1 37.37, 2.87 30.24 M28.89 47.56 C20.27 39.71, 11.7 34.67, 3.23 25.25 M28.89 47.56 C22.39 41.82, 15.44 37.29, 3.23 25.25 M32.26 45.19 C21.01 38.36, 12.69 29.28, 2.83 19.61 M32.26 45.19 C23.8 39.23, 16.73 32.11, 2.83 19.61 M34.89 42.17 C22.84 34.81, 13.68 22.74, 3.19 14.62 M34.89 42.17 C26.14 34.82, 17.61 26.9, 3.19 14.62 M36 37.84 C27.12 30.21, 17.97 20.16, 2.8 8.98 M36 37.84 C24.84 28.12, 12.59 17.55, 2.8 8.98 M35.61 32.2 C22.21 23.27, 9.46 8.76, 2.4 3.33 M35.61 32.2 C27.25 26.37, 21.76 19.98, 2.4 3.33 M35.97 27.21 C22.57 16.75, 11.31 5.96, 5.03 0.32 M35.97 27.21 C23.4 16.69, 12.45 5.43, 5.03 0.32 M35.57 21.57 C27.02 12.43, 17.11 5.66, 9.16 -1.39 M35.57 21.57 C26.69 14.78, 17.59 5.38, 9.16 -1.39 M35.93 16.58 C29.97 9.43, 23.19 4.63, 15.56 -1.13 M35.93 16.58 C28.67 8.62, 18.84 1.81, 15.56 -1.13 M35.54 10.94 C29.65 7.1, 26.2 2.96, 21.96 -0.87 M35.54 10.94 C30.86 6.15, 25.73 2.11, 21.96 -0.87" stroke="#fa5252" stroke-width="0.5" fill="none"></path><path d="M8.6 0 M8.6 0 C14.77 -0.43, 17.8 -0.47, 25.79 0 M25.79 0 C32.26 1.59, 33.58 2.05, 34.38 8.6 M34.38 8.6 C32.87 17.34, 34.15 27.06, 34.38 39.79 M34.38 39.79 C35.52 44.32, 32.42 47.01, 25.79 48.39 M25.79 48.39 C23.21 49.51, 20.24 47.45, 8.6 48.39 M8.6 48.39 C1.25 46.81, 0.38 45.56, 0 39.79 M0 39.79 C-1.73 30.83, 1.6 21.25, 0 8.6 M0 8.6 C1.77 1.07, 3.34 -0.66, 8.6 0" stroke="#343a40" stroke-width="1.5" fill="none" stroke-dasharray="1.5 7"></path></g><g stroke-linecap="round" transform="translate(1172 173.24609375) rotate(0 18.5078125 21.4453125)"><path d="M0.28 5.55 C0.28 5.55, 0.28 5.55, 0.28 5.55 M0.28 5.55 C0.28 5.55, 0.28 5.55, 0.28 5.55 M0.68 11.19 C4.02 9.75, 6.76 4.43, 9.86 0.62 M0.68 11.19 C4.02 7.84, 6.07 4.81, 9.86 0.62 M0.42 17.59 C4.81 13.15, 11.51 5.13, 14.85 0.98 M0.42 17.59 C4.69 12.11, 8.98 7.58, 14.85 0.98 M0.81 23.23 C9.71 16.06, 14.38 5.15, 20.49 0.59 M0.81 23.23 C8.22 13.4, 15.8 4.72, 20.49 0.59 M0.55 29.63 C6.81 24.83, 10.67 15.24, 25.48 0.95 M0.55 29.63 C6.76 23.18, 11.16 16.72, 25.48 0.95 M0.29 36.03 C8.24 25.06, 14.38 19.23, 30.47 1.31 M0.29 36.03 C10.97 25.53, 19.53 14.24, 30.47 1.31 M2.65 39.4 C10.5 28.66, 20.07 17.77, 34.14 3.18 M2.65 39.4 C14.2 26.44, 26.09 14.38, 34.14 3.18 M5.01 42.78 C11.71 34.42, 18.06 29.14, 37.16 5.8 M5.01 42.78 C13.96 31.94, 23.29 21.72, 37.16 5.8 M10.66 42.39 C16.67 35.48, 27.94 22.65, 37.55 11.45 M10.66 42.39 C19.94 30.57, 31.73 19.33, 37.55 11.45 M15.64 42.75 C23.01 35.6, 30.48 24.83, 37.29 17.84 M15.64 42.75 C20.29 37.3, 27.06 30.39, 37.29 17.84 M21.29 42.35 C25.52 35.83, 30.93 32.62, 37.69 23.49 M21.29 42.35 C25.66 37.7, 29.52 33.04, 37.69 23.49 M26.27 42.71 C29.22 40.09, 30.38 36.86, 37.43 29.88 M26.27 42.71 C29.9 39.81, 33.37 34.84, 37.43 29.88 M31.92 42.32 C34.34 41.12, 34.65 38.21, 38.48 34.77 M31.92 42.32 C32.86 41.11, 34.2 39.66, 38.48 34.77 M5.44 42.52 C5.44 42.52, 5.44 42.52, 5.44 42.52 M5.44 42.52 C5.44 42.52, 5.44 42.52, 5.44 42.52 M11.08 42.12 C8.27 40.97, 6.04 37.74, 2.78 34.91 M11.08 42.12 C8.44 39.76, 6.12 37.8, 2.78 34.91 M17.48 42.38 C12.31 37.44, 7.16 35.25, 3.14 29.92 M17.48 42.38 C13.83 39.06, 9.67 36.89, 3.14 29.92 M23.12 41.99 C14.82 37.67, 9.4 31.11, 2.75 24.28 M23.12 41.99 C17.03 38.01, 12.3 32.94, 2.75 24.28 M29.52 42.25 C19.16 36.39, 11.69 25.78, 3.11 19.29 M29.52 42.25 C22.27 36.23, 15.23 29.6, 3.11 19.29 M33.66 40.54 C25.43 33.51, 16.95 24.05, 2.71 13.65 M33.66 40.54 C23.28 31.49, 11.8 21.58, 2.71 13.65 M36.28 37.53 C22.88 28.59, 10.13 14.09, 3.07 8.66 M36.28 37.53 C27.92 31.69, 22.43 25.3, 3.07 8.66 M37.4 33.19 C22.54 21.43, 9.83 9.38, 2.68 3.02 M37.4 33.19 C23.34 21.37, 10.9 8.82, 2.68 3.02 M37 27.55 C26.57 16.74, 14.75 8.32, 5.3 0 M37 27.55 C26.33 19.22, 15.48 8.3, 5.3 0 M37.36 22.56 C29.26 13.52, 20.3 6.83, 10.19 -1.05 M37.36 22.56 C27.41 12.25, 14.88 3.1, 10.19 -1.05 M36.97 16.92 C28.41 10.89, 22.59 4.58, 16.59 -0.79 M36.97 16.92 C29.89 9.96, 22.26 3.8, 16.59 -0.79 M37.33 11.93 C34.23 7.94, 27.77 4.24, 22.99 -0.53 M37.33 11.93 C32 7.9, 27.63 4.31, 22.99 -0.53 M36.93 6.29 C34.43 5.39, 33.01 3.8, 29.38 -0.27 M36.93 6.29 C34.84 5.04, 33.87 3.69, 29.38 -0.27" stroke="#fa5252" stroke-width="0.5" fill="none"></path><path d="M9.25 0 M9.25 0 C14.3 0.18, 18.07 1.41, 27.76 0 M27.76 0 C34.39 -1.51, 36.45 4.9, 37.02 9.25 M37.02 9.25 C37.71 13.77, 38.66 21.3, 37.02 33.64 M37.02 33.64 C38.21 40.45, 33.05 43.12, 27.76 42.89 M27.76 42.89 C19.94 42.95, 15.15 41.22, 9.25 42.89 M9.25 42.89 C4.69 42.44, -0.71 39.38, 0 33.64 M0 33.64 C-0.68 25.26, -0.68 17.83, 0 9.25 M0 9.25 C-0.13 4.14, 5.08 -1.81, 9.25 0" stroke="#343a40" stroke-width="1.5" fill="none" stroke-dasharray="1.5 7"></path></g><g stroke-linecap="round" transform="translate(1214.95703125 271.80078125) rotate(0 24.287109375 26.431640625)"><path d="M3.23 2.81 C3.23 2.81, 3.23 2.81, 3.23 2.81 M3.23 2.81 C3.23 2.81, 3.23 2.81, 3.23 2.81 M1.66 10.72 C4.44 6.7, 7.1 3.72, 10.19 0.91 M1.66 10.72 C4.09 7.89, 6.62 5.41, 10.19 0.91 M1.4 17.11 C6.09 11.39, 10.82 5.28, 14.52 2.02 M1.4 17.11 C6.42 11.58, 10.87 6.25, 14.52 2.02 M1.79 22.76 C4.56 16.53, 11.45 15.55, 19.51 2.38 M1.79 22.76 C5.64 17.61, 9.02 14.93, 19.51 2.38 M1.53 29.16 C9.67 18.96, 20.3 8.85, 25.15 1.99 M1.53 29.16 C8.46 20.94, 15.45 14.85, 25.15 1.99 M1.27 35.55 C9.46 24.03, 19.05 13.76, 30.14 2.35 M1.27 35.55 C12.67 23.29, 23.13 10.53, 30.14 2.35 M1.01 41.95 C16.16 26.75, 29.09 9.33, 35.78 1.95 M1.01 41.95 C11.59 29.59, 23.95 17.21, 35.78 1.95 M2.06 46.84 C12.88 37.42, 22.72 23.78, 41.42 1.56 M2.06 46.84 C12.76 33.45, 25.35 20.62, 41.42 1.56 M4.42 50.22 C21.25 32.73, 34.69 14.31, 45.1 3.43 M4.42 50.22 C17.82 32.18, 32.64 16.95, 45.1 3.43 M7.44 52.84 C20.43 38.91, 31.31 26.23, 48.12 6.05 M7.44 52.84 C17.69 40.09, 28.47 28, 48.12 6.05 M11.11 54.71 C24.01 41.03, 31.72 27.43, 49.17 10.94 M11.11 54.71 C23.11 40.85, 34.55 26.64, 49.17 10.94 M16.76 54.32 C29.38 37.98, 43.13 24.62, 51.53 14.32 M16.76 54.32 C28.68 40.59, 39.81 28.27, 51.53 14.32 M21.74 54.68 C29.37 42.48, 41.1 33.19, 51.27 20.72 M21.74 54.68 C27.39 47.5, 35.22 40.56, 51.27 20.72 M27.39 54.28 C33.96 45.72, 45.08 36.95, 51.01 27.11 M27.39 54.28 C34.47 46.7, 40.79 38.01, 51.01 27.11 M32.37 54.64 C37.88 48.65, 42.52 43.41, 51.4 32.76 M32.37 54.64 C37.29 49.21, 40.32 46.57, 51.4 32.76 M38.02 54.25 C39.9 49.12, 44.83 45.81, 49.17 41.42 M38.02 54.25 C41.16 50.25, 44.44 47.67, 49.17 41.42 M4.64 51.06 C4.64 51.06, 4.64 51.06, 4.64 51.06 M4.64 51.06 C4.64 51.06, 4.64 51.06, 4.64 51.06 M11.03 51.32 C9.8 50.23, 7.51 48.9, 4.24 45.42 M11.03 51.32 C9.16 50.06, 6.9 47.7, 4.24 45.42 M16.68 50.93 C11.56 47.42, 10.65 46.24, 2.34 38.46 M16.68 50.93 C12.12 46.57, 5.84 41.96, 2.34 38.46 M23.08 51.19 C18.45 47.81, 11.49 40.59, 1.94 32.82 M23.08 51.19 C16.74 45.86, 11.52 41.25, 1.94 32.82 M29.47 51.45 C18.83 40.36, 9.66 31.7, 2.3 27.83 M29.47 51.45 C20.15 42.24, 11.45 35.64, 2.3 27.83 M36.63 52.37 C21.68 40.73, 9.79 27.99, 1.91 22.19 M36.63 52.37 C23.49 41.9, 10.12 30.77, 1.91 22.19 M41.51 51.32 C34.61 45.7, 26.13 37.49, 2.27 17.2 M41.51 51.32 C31.64 43.12, 20.63 34.03, 2.27 17.2 M45.65 49.61 C31.92 37.4, 18.31 27.11, 2.63 12.22 M45.65 49.61 C32.55 37.7, 19.85 26.52, 2.63 12.22 M47.52 45.94 C32.95 30.13, 13.22 17.57, 2.23 6.57 M47.52 45.94 C30.21 30.09, 12.6 14.99, 2.23 6.57 M50.14 42.92 C37.19 30.73, 21.09 18.55, 3.35 2.24 M50.14 42.92 C37.74 32.28, 24.87 21.97, 3.35 2.24 M50.5 37.93 C34.36 26.48, 20.38 14.83, 8.24 1.19 M50.5 37.93 C36.34 26.02, 23.82 13.8, 8.24 1.19 M50.86 32.95 C43.43 24.75, 33.81 19.89, 12.37 -0.51 M50.86 32.95 C39.41 21.99, 25.54 12.18, 12.37 -0.51 M50.47 27.3 C40.57 19.41, 32.96 11.87, 18.77 -0.25 M50.47 27.3 C38.34 17.53, 27.82 8.04, 18.77 -0.25 M50.83 22.32 C44.93 17.15, 38.35 12.41, 24.41 -0.65 M50.83 22.32 C41.98 14.02, 32.4 5.43, 24.41 -0.65 M50.43 16.67 C44.6 13.42, 39.89 5.73, 30.81 -0.39 M50.43 16.67 C44.18 10.95, 40.01 7.7, 30.81 -0.39 M50.04 11.03 C45.14 6.38, 42.26 3.07, 37.21 -0.12 M50.04 11.03 C45.29 7.41, 39.66 3.48, 37.21 -0.12" stroke="#fa5252" stroke-width="0.5" fill="none"></path><path d="M12.14 0 M12.14 0 C20.16 -1.2, 26.41 -0.16, 36.43 0 M36.43 0 C43.11 -0.25, 46.67 2.81, 48.57 12.14 M48.57 12.14 C49.26 20.49, 48.36 27.09, 48.57 40.72 M48.57 40.72 C47.97 47.96, 45.84 54.6, 36.43 52.86 M36.43 52.86 C29.63 54.01, 23.97 53.84, 12.14 52.86 M12.14 52.86 C3.38 51.21, 0.6 49.94, 0 40.72 M0 40.72 C1.74 31.14, 1.44 20.22, 0 12.14 M0 12.14 C-1.02 5.19, 3.43 -0.78, 12.14 0" stroke="#343a40" stroke-width="1.5" fill="none" stroke-dasharray="1.5 7"></path></g><g transform="translate(1152.25 15.078125) rotate(0 24.5 12.5)"><text x="0" y="18" font-family="Virgil, Segoe UI Emoji" font-size="20px" fill="#343a40" text-anchor="start" style="white-space: pre;" direction="ltr">Seam</text></g></svg>