<?xml version="1.0" standalone="no"?>
<!DOCTYPE svg PUBLIC "-//W3C//DTD SVG 20010904//EN"
 "http://www.w3.org/TR/2001/REC-SVG-20010904/DTD/svg10.dtd">
<svg version="1.0" xmlns="http://www.w3.org/2000/svg"
 width="1200.000000pt" height="1200.000000pt" viewBox="0 0 1200.000000 1200.000000"
 preserveAspectRatio="xMidYMid meet">
<metadata>
Created by potrace 1.14, written by Peter Selinger 2001-2017
</metadata>
<g transform="translate(0.000000,1200.000000) scale(0.100000,-0.100000)"
fill="#000000" stroke="none">
<path d="M1829 11236 c-2 -2 -23 -6 -46 -9 -361 -50 -692 -281 -876 -615 -25
-45 -51 -98 -57 -119 -7 -21 -16 -42 -20 -48 -10 -13 -47 -162 -59 -240 -6
-38 -9 -1573 -8 -4240 l2 -4180 22 -86 c60 -240 158 -415 328 -584 144 -144
285 -232 473 -295 190 -63 -138 -59 4442 -57 2296 1 4186 5 4200 9 14 4 49 13
78 19 128 26 274 89 405 175 92 60 260 228 319 319 87 133 165 317 183 430 3
22 10 63 15 90 11 64 12 8311 0 8385 -29 193 -71 314 -159 462 -64 108 -79
126 -186 233 -107 107 -118 115 -215 175 -135 84 -311 147 -465 169 -66 9
-8366 16 -8376 7z"/>
</g>
</svg>
