<?xml version="1.0" standalone="no"?>
<!DOCTYPE svg PUBLIC "-//W3C//DTD SVG 20010904//EN"
 "http://www.w3.org/TR/2001/REC-SVG-20010904/DTD/svg10.dtd">
<svg version="1.0" xmlns="http://www.w3.org/2000/svg"
 width="266.000000pt" height="266.000000pt" viewBox="0 0 266.000000 266.000000"
 preserveAspectRatio="xMidYMid meet">
<metadata>
Created by potrace 1.14, written by Peter Selinger 2001-2017
</metadata>
<g transform="translate(0.000000,266.000000) scale(0.100000,-0.100000)"
fill="#000000" stroke="none">
<path d="M1294 2271 c-3 -3 -18 -6 -34 -7 -31 -2 -75 -36 -204 -156 -39 -36
-107 -99 -151 -139 -75 -69 -115 -109 -233 -233 -25 -26 -57 -55 -70 -64 -34
-22 -36 -19 -142 203 -91 192 -187 285 -278 269 -64 -11 -172 -44 -172 -54 0
-4 13 -21 28 -37 28 -27 72 -126 72 -161 0 -9 23 -89 51 -177 94 -300 103
-330 105 -369 0 -21 -5 -59 -13 -85 -7 -25 -16 -62 -19 -81 -3 -19 -19 -87
-36 -150 -55 -206 -96 -404 -93 -451 5 -87 66 -157 172 -199 34 -13 88 -6 78
10 -3 5 1 12 9 17 16 10 67 108 60 116 -3 3 5 25 19 49 14 24 30 61 37 83 7
22 25 65 40 95 16 30 34 73 40 95 7 22 18 50 26 62 7 12 18 43 24 69 6 25 31
100 55 166 25 66 44 132 43 147 -2 31 43 99 119 179 24 26 72 78 106 116 34
39 97 105 139 148 43 42 98 104 124 135 26 32 61 72 78 89 27 27 131 141 186
205 26 29 25 42 -3 75 -19 22 -34 27 -90 33 -37 4 -70 5 -73 2z"/>
<path d="M2445 2022 c-4 -4 -25 -7 -48 -8 -74 -2 -287 -18 -377 -28 -30 -4
-77 -9 -105 -12 -27 -4 -61 -7 -75 -9 -166 -17 -280 -34 -331 -50 -26 -9 -25
-54 4 -96 15 -23 41 -42 77 -57 58 -24 50 -24 260 -2 179 19 340 31 340 25 0
-2 -42 -40 -92 -85 -51 -45 -118 -103 -148 -130 -30 -26 -75 -65 -100 -87 -25
-21 -47 -40 -50 -43 -3 -3 -39 -34 -80 -70 -221 -190 -321 -332 -321 -454 0
-58 15 -124 38 -170 31 -59 107 -110 213 -140 64 -18 218 -35 222 -25 2 4 28
9 58 10 30 1 84 10 120 20 36 9 91 20 122 23 32 4 70 11 85 17 31 13 128 15
184 4 43 -8 49 -2 55 61 4 39 1 48 -23 69 -42 35 -106 50 -223 49 -96 0 -226
-11 -240 -19 -9 -6 -160 -17 -160 -12 0 15 32 77 39 77 5 0 20 17 32 38 36 59
226 324 256 357 16 17 43 48 61 70 88 108 113 135 192 215 126 128 189 200
207 233 31 61 12 132 -47 175 -36 27 -135 64 -145 54z"/>
</g>
</svg>
