<?xml version="1.0" standalone="no"?>
<!DOCTYPE svg PUBLIC "-//W3C//DTD SVG 20010904//EN"
 "http://www.w3.org/TR/2001/REC-SVG-20010904/DTD/svg10.dtd">
<svg version="1.0" xmlns="http://www.w3.org/2000/svg"
 width="1284.000000pt" height="1284.000000pt" viewBox="0 0 1284.000000 1284.000000"
 preserveAspectRatio="xMidYMid meet">
<metadata>
Created by potrace 1.14, written by Peter Selinger 2001-2017
</metadata>
<g transform="translate(0.000000,1284.000000) scale(0.100000,-0.100000)"
fill="#000000" stroke="none">
<path d="M2249 11636 c-2 -2 -22 -6 -44 -9 -252 -35 -479 -150 -671 -342 -190
-189 -304 -414 -342 -675 -9 -59 -9 -8373 0 -8425 32 -195 110 -385 220 -535
60 -82 215 -231 294 -282 158 -103 333 -172 499 -196 69 -10 8366 -9 8438 1
33 5 70 12 83 17 13 5 24 8 24 5 0 -8 168 54 236 87 350 173 590 495 658 883
12 68 14 701 12 4255 0 2296 -5 4189 -9 4205 -4 17 -10 46 -13 65 -19 114 -97
296 -181 423 -41 63 -201 234 -258 277 -105 79 -234 147 -363 190 -189 63 134
59 -4423 59 -2286 1 -4158 -1 -4160 -3z"/>
</g>
</svg>
