<svg xmlns="http://www.w3.org/2000/svg" width="260" height="366.6667" version="1" viewBox="0 0 195 275">
  <path d="M87.9 1.1c-3.2 1.2-8.2 11.4-9.9 20.4-.6 3.3-2 8.7-3 12-1.1 3.3-4.2 15.2-6.9 26.5-4.9 20.2-10.6 40.8-11.5 41.7-.7.7-8.5-16.2-17.5-37.9-4.4-10.9-8.1-20-8.1-20.3 0-.3-.9-2.4-1.9-4.8-1.1-2.3-2.7-6.7-3.6-9.7C21.2 15.3 12.8 4 6.8 4 5.4 4 3.4 5 2.2 6.3c-5 5.3-2.4 15.1 14.5 55 4.1 9.9 8.3 20.2 9.3 23 1 2.9 3.3 8.3 5 12.2 1.8 3.8 5.7 13.7 8.6 21.9 7.3 20 7.2 20.7-1.2 56.9-3.6 15.5-8.5 38.1-10.9 50.2-2.4 12.1-5.5 26.3-6.9 31.5-3.1 11.2-3.1 11.4-1 13.4 1.4 1.5 1.8 1.5 4.3 0 5.5-3.2 7.7-10.2 16.6-51.4 7.7-36 20.5-87.2 22-88.4.7-.6 1.5-3.8 1.9-7.1 1.1-10.5 7.6-40.2 13.3-61 3.1-11 6.2-22.7 6.9-26.1.7-3.3 2.2-9.4 3.4-13.5 1.8-6.6 3.9-23 2.9-22.8-.2 0-1.6.5-3 1zm37 5.9c-11.5.8-14.4 1.5-16.8 4.4-.9 1.1-1 2-.1 3.5 1 1.9 2 2.1 12.3 2.1 6.2 0 18-.5 26.2-1.1 16.9-1.3 26.5-.3 26.5 2.9 0 2.9-5.6 20-12 36.7-3.4 8.8-9.9 28.1-14.6 43-4.7 14.8-11.8 37.1-15.9 49.5-8.3 25.4-26.5 97.1-27.2 107-.4 5.1 0 7.5 1.5 11.1 3.8 8.7 8.4 10.9 13.8 6.6 2.6-2 4.2-2.3 19.4-2.8 10.3-.4 19.4-1.3 24.4-2.4 7.1-1.7 7.9-2.1 9.4-5.2 2.5-5.2.9-5.9-9-3.9-5.8 1.1-13.5 1.6-25.5 1.6-16.3 0-17.2-.1-17.8-2-.3-1.1.1-3.2.9-4.7.9-1.6 4.8-13.2 8.7-25.8 3.8-12.7 9-29.1 11.5-36.5 2.5-7.4 5.2-16.9 6-21 2-9.8 15.5-54.7 20.5-67.8 2.1-5.7 3.9-11.1 3.9-12 0-.9 2.3-8.5 5.1-16.7C180.2 61.4 195 12 195 10.3c0-.2-1.7-1.1-3.7-2-3.1-1.3-8.5-1.7-29.3-1.9-14-.1-30.7.1-37.1.6z"/>
</svg>
